# xmcd
#
# Track frame offsets:
#	150
#	16788
#	29274
#	38094
#	54989
#	67212
#	81531
#	93819
#	105558
#	115085
#	130097
#
# Disc length: 1885 seconds
#
# Revision: 1
# Processed by: cddbd v1.5.2PL0 Copyright (c) Steve Scherf et al.
# Submitted via: audiograbber 1.83.01
#
DISCID=85075b0b
DTITLE=Bumpkin - Fool's Day
DYEAR=2005
DGENRE=Bluegrass
TTITLE0=Good Old Days
TTITLE1=Feelin' Like I Do
TTITLE2=Places
TTITLE3=Sangria Wine
TTITLE4=Rain Spell
TTITLE5=Higher Place
TTITLE6=Three Times Will Do
TTITLE7=Pain In My Heart
TTITLE8=Don't Get Drunk (On Your Wedding Day)
TTITLE9=Pour Me Another Beer
TTITLE10=Two-Timin' Thing
EXTD=
EXTT0=
EXTT1=
EXTT2=
EXTT3=
EXTT4=
EXTT5=
EXTT6=
EXTT7=
EXTT8=
EXTT9=
EXTT10=
PLAYORDER=
